<svg width="55" xmlns="http://www.w3.org/2000/svg" height="55" id="screenshot-fd9bed95-5145-8090-8005-cb76df64c892" viewBox="0 0 55 55" xmlns:xlink="http://www.w3.org/1999/xlink" fill="none" version="1.1"><g id="shape-fd9bed95-5145-8090-8005-cb76df64c892" width="100" height="100" rx="0" ry="0" style="fill: rgb(0, 0, 0);"><g id="shape-fd9bed95-5145-8090-8005-cb76df64c898" style="display: none;"><g class="fills" id="fills-fd9bed95-5145-8090-8005-cb76df64c898"><rect width="55" height="55" x="0" transform="matrix(1.000000, 0.000000, 0.000000, 1.000000, 0.000000, 0.000000)" style="fill: none;" ry="0" fill="none" rx="0" y="0"/></g></g><g id="shape-fd9bed95-5145-8090-8005-cb76df64c899"><g class="fills" id="fills-fd9bed95-5145-8090-8005-cb76df64c899"><path d="M53.9912109375,20.0889892578125C49.8818359375,5.4630126953125,34.69384765625,-3.0625,20.0673828125,1.046875C8.2080078125,4.3790283203125,0.009765625,15.1893310546875,0,27.5079345703125C0,28.32373046875,0.0390625,29.127685546875,0.10888671875,29.9278564453125C11.12060546875,20.170654296875,28.73974609375,13.874267578125,53.9951171875,20.089111328125" style="fill: rgb(1, 166, 225); fill-opacity: 1;"/></g></g><g id="shape-fd9bed95-5145-8090-8005-cb76df64c89a"><g class="fills" id="fills-fd9bed95-5145-8090-8005-cb76df64c89a"><path d="M18.951171875,27.3409423828125C12.5615234375,29.826904296875,6.88671875,33.8121337890625,2.109375,38.096435546875C7.97998046875,52.1109619140625,24.1005859375,58.712646484375,38.115234375,52.841796875C50.34716796875,47.7174072265625,57.1826171875,34.5958251953125,54.3720703125,21.635009765625C42.29443359375,21.011962890625,30.22216796875,22.9566650390625,18.951171875,27.3409423828125" style="fill: rgb(1, 166, 225); fill-opacity: 1;"/></g></g></g></svg>